<svg xmlns="http://www.w3.org/2000/svg" width="328.919" height="176.263" viewBox="0 0 328.919 176.263">
    <g id="Consulting_Isometric" transform="translate(-38.23 -63.31)">
        <ellipse id="Ellipse_41" data-name="Ellipse 41" cx="164.46" cy="12.901" rx="164.46" ry="12.901" transform="translate(38.23 213.771)" fill="#e6e6e6" opacity="0.3"/>
        <path id="Path_2542" data-name="Path 2542" d="M72.687,148s-16.856,8.133-19.052,26.747S45.208,229.381,91.017,227.3s67.413-4.605,56.606-39.648S72.687,148,72.687,148Z" transform="translate(0.23 1.408)" fill="#f5802f"/>
        <path id="Path_2543" data-name="Path 2543" d="M70.683,157.584a13.348,13.348,0,0,0,6.1,13.694c6.212,4.067,15.778,18.645,23.2,26.015a12.1,12.1,0,0,1,3.619,8.784,5.307,5.307,0,0,0,2.287,4.229c5.154,4.209,26.778,6.323,38.876-6.639s-3.853-19.377-3.853-19.377L87.763,155.52Z" transform="translate(0.536 1.533)" opacity="0.09"/>
        <path id="Path_2544" data-name="Path 2544" d="M186.359,220a6.161,6.161,0,0,0,3.955,3.487c2.826.64,4.361,4.117-1.82,3.548s-9.566.407-8.682-2.989.488-3.9.488-3.9Z" transform="translate(2.352 2.605)" fill="#f4a28c"/>
        <path id="Path_2545" data-name="Path 2545" d="M145.57,217.658a6.161,6.161,0,0,0,1.637,5.012c2.1,2.033,1.657,5.774-3.375,2.135s-8.448-4.524-5.957-6.984,2.409-3.121,2.409-3.121Z" transform="translate(1.643 2.517)" fill="#f4a28c"/>
        <path id="Path_2546" data-name="Path 2546" d="M151.075,175.39s37.788.386,37.422,45.453l-8.916,1.5s-1.708-47.578-50.831-24.917l2.562-18.747Z" transform="translate(1.505 1.864)" fill="#24285b"/>
        <path id="Path_2547" data-name="Path 2547" d="M151.075,175.39s37.788.386,37.422,45.453l-8.916,1.5s-1.708-47.578-50.831-24.917l2.562-18.747Z" transform="translate(1.505 1.864)" opacity="0.09"/>
        <path id="Path_2548" data-name="Path 2548" d="M153.66,134.587l3.274.874-2.328-2.511Z" transform="translate(1.919 1.158)" fill="#ffd200"/>
        <path id="Path_2549" data-name="Path 2549" d="M103,157.034s6.527,16.49,22.467,13.6,21.99-36.344,21.99-36.344,6.313-4.066,3.253-8.672-8.011,5.317-8.011,5.317-6.862,28.171-21.725,19.041Z" transform="translate(1.077 1.016)" fill="#f4a28c"/>
        <path id="Path_2550" data-name="Path 2550" d="M103,157.034s6.527,16.49,22.467,13.6,21.99-36.344,21.99-36.344,6.313-4.066,3.253-8.672-8.011,5.317-8.011,5.317-6.862,28.171-21.725,19.041Z" transform="translate(1.077 1.016)" opacity="0.09"/>
        <path id="Path_2551" data-name="Path 2551" d="M103.45,123.521l3.457.722s26.615,14.446,21.664,28.923,5.866,28.222,5.866,28.222l-23.149,16.266s-30.245-15.026-25.721-56.341C85.568,141.353,87.672,122.088,103.45,123.521Z" transform="translate(0.779 1)" fill="#2673d1"/>
        <rect id="Rectangle_251" data-name="Rectangle 251" width="4.839" height="41.356" transform="translate(161.055 130.588) rotate(25.68)" fill="#e6e6e6"/>
        <path id="Path_2552" data-name="Path 2552" d="M101.988,105.66l-4.788,16.9,9.505,1.972-.335-13.084Z" transform="translate(0.98 0.704)" fill="#f4a28c"/>
        <path id="Path_2553" data-name="Path 2553" d="M106.457,114.207a6.4,6.4,0,0,1-2.887-2.237s-.244,3.213,2.887,6.781Z" transform="translate(1.086 0.809)" fill="#ce8172" opacity="0.31"/>
        <path id="Path_2554" data-name="Path 2554" d="M111.756,106.235a33.285,33.285,0,0,1-2.033,8.672,2.684,2.684,0,0,1-3.568,1.342,5.947,5.947,0,0,1-3.8-5.225l-.752-4.89a4.788,4.788,0,0,1,2.979-4.687C107.985,99.831,112.173,103.033,111.756,106.235Z" transform="translate(1.054 0.627)" fill="#f4a28c"/>
        <path id="Path_2555" data-name="Path 2555" d="M105.332,109.645s.315-2.033-1.24-2.155-2.033,2.826,0,3.477Z" transform="translate(1.073 0.735)" fill="#f4a28c"/>
        <path id="Path_2556" data-name="Path 2556" d="M111.159,109.44l1.108,2.3a.854.854,0,0,1-.762,1.23H109.41Z" transform="translate(1.183 0.767)" fill="#f4a28c"/>
        <rect id="Rectangle_252" data-name="Rectangle 252" width="18.995" height="1.897" transform="translate(140.683 125.165) rotate(29.887)" fill="#24285b"/>
        <path id="Path_2557" data-name="Path 2557" d="M116.589,188.341l-5.307,8.987s-19.255-9.312-24.775-34.565,12.718-15.422,12.718-15.422Z" transform="translate(0.785 1.366)" opacity="0.18"/>
        <path id="Path_2558" data-name="Path 2558" d="M110.86,197.073S128.7,160.7,155.083,160.84s-7.889,58.68-7.889,58.68l-8.743-3.538s12.952-25.121,9.638-33.2S139.8,230.479,110.86,197.073Z" transform="translate(1.208 1.622)" fill="#24285b"/>
        <path id="Path_2559" data-name="Path 2559" d="M95.979,125.546s7.94-4.067,11.976,4.148.854,43.369,17.222,45.2,24.674-15.249,24.674-15.249,1.352-7.2,3.609-8.367,4.219,6.354,0,10.746c0,0-7.218,27.124-30.113,27.734S73.39,144.11,95.979,125.546Z" transform="translate(0.819 1.018)" fill="#f4a28c"/>
        <path id="Path_2560" data-name="Path 2560" d="M112.42,99.4s5.215,6.1-1.545,7.421-8.133,2.5-7.493,9.343,3.314,13.135-5.632,17.466-1.22,11.4-2.908,19.824-9.526,14.233-19.6,8.479-16.266-20.383-5.5-29.177,24.4-10.908,24.4-25.06S105.436,92.808,112.42,99.4Z" transform="translate(0.43 0.533)" fill="#24285b"/>
        <rect id="Rectangle_253" data-name="Rectangle 253" width="7.157" height="4.036" transform="translate(149.313 160.092) rotate(20.87)" fill="#2673d1"/>
        <rect id="Rectangle_254" data-name="Rectangle 254" width="7.157" height="4.036" transform="translate(149.313 160.092) rotate(20.87)" fill="#fff" opacity="0.44"/>
        <path id="Path_2561" data-name="Path 2561" d="M322,145.54s33.752,5.7,32.186,29.248c-1.24,18.726,8.428,54.634-37.371,52.58s-67.412-4.605-56.616-39.648S322,145.54,322,145.54Z" transform="translate(3.645 1.367)" fill="#f5802f"/>
        <path id="Path_2562" data-name="Path 2562" d="M336.815,157.709a13.348,13.348,0,0,1-6.1,13.694c-6.212,4.066-15.768,18.645-23.2,26.015A12.138,12.138,0,0,0,303.9,206.2a5.307,5.307,0,0,1-2.287,4.229c-5.154,4.209-26.778,6.323-38.866-6.639s3.843-19.377,3.843-19.377l52.407-36.283C317.184,147.177,334.67,150.633,336.815,157.709Z" transform="translate(3.658 1.408)" opacity="0.09"/>
        <path id="Path_2563" data-name="Path 2563" d="M220.105,220a6.161,6.161,0,0,1-3.965,3.487c-2.826.64-4.361,4.117,1.82,3.548s9.577.407,8.682-2.989-.478-3.9-.478-3.9Z" transform="translate(2.917 2.605)" fill="#f4a28c"/>
        <path id="Path_2564" data-name="Path 2564" d="M249.157,221.6a6.171,6.171,0,0,1-3.263,4.158c-2.653,1.149-3.538,4.839,2.44,3.162s9.485-1.352,7.991-4.524-1.189-3.751-1.189-3.751Z" transform="translate(3.419 2.616)" fill="#f4a28c"/>
        <path id="Path_2565" data-name="Path 2565" d="M256.112,175.39s-37.788.386-37.422,45.453l8.926,1.5s1.708-47.578,50.831-24.917l-2.562-18.747Z" transform="translate(3.001 1.864)" fill="#24285b"/>
        <path id="Path_2566" data-name="Path 2566" d="M256.112,175.39s-37.788.386-37.422,45.453l8.926,1.5s1.708-47.578,50.831-24.917l-2.562-18.747Z" transform="translate(3.001 1.864)" opacity="0.09"/>
        <path id="Path_2567" data-name="Path 2567" d="M257.34,135.178s-13.47,6.913-18.086,3.751-5.927-20.76-5.927-20.76l-6.323,1.4s-2.43,34.769,8.275,38.378,29.34-5.622,29.34-5.622Z" transform="translate(3.135 0.912)" fill="#f4a28c"/>
        <path id="Path_2568" data-name="Path 2568" d="M293.692,135.052c-4.443,8.824-14.172,20.648-34.809,22.833l-4.422-22.173s15.7-9.922,32.319-11.183a7.238,7.238,0,0,1,6.913,10.522Z" transform="translate(3.595 1.018)" fill="#2673d1"/>
        <path id="Path_2569" data-name="Path 2569" d="M293.692,135.052c-4.443,8.824-14.172,20.648-34.809,22.833l-4.422-22.173s15.7-9.922,32.319-11.183a7.238,7.238,0,0,1,6.913,10.522Z" transform="translate(3.595 1.018)" fill="#fff" opacity="0.46"/>
        <path id="Path_2570" data-name="Path 2570" d="M233.016,118.38c.315-.071.63-6.791-.183-6.171a3.721,3.721,0,0,0-1.108,1.881s0-4.758-2.45-4.229-3.284,6.008-2.318,9.851l6.018-1.108" transform="translate(3.131 0.773)" fill="#f4a28c"/>
        <path id="Path_2571" data-name="Path 2571" d="M289.484,104.735a27.837,27.837,0,0,0,0,7.482,2.247,2.247,0,0,0,2.664,1.769,4.982,4.982,0,0,0,4.066-3.538l1.545-3.853a4.067,4.067,0,0,0-1.545-4.412C293.784,100.232,289.728,102.011,289.484,104.735Z" transform="translate(4.173 0.633)" fill="#f4a28c"/>
        <path id="Path_2572" data-name="Path 2572" d="M297.468,107.19,299,121.86l-8.143.274,2.155-10.786Z" transform="translate(4.2 0.73)" fill="#f4a28c"/>
        <path id="Path_2573" data-name="Path 2573" d="M290.629,105.043a18.015,18.015,0,0,0,4.158-.1,3.771,3.771,0,0,0-.224,4.066,3.05,3.05,0,0,0,3.629,1.413l.234-5.785a4.575,4.575,0,0,0-2.1-4.2,15.978,15.978,0,0,0-1.881-1.017c-1.627-.752-4.117.224-5.551-1.017a1.088,1.088,0,0,0-1.759.62c-.346,1.738-.183,4.514,2.145,5.6A4.159,4.159,0,0,0,290.629,105.043Z" transform="translate(4.136 0.579)" fill="#dd6034"/>
        <path id="Path_2574" data-name="Path 2574" d="M294,108.745s.122-1.728,1.413-1.525,1.128,2.7-.651,2.836Z" transform="translate(4.253 0.73)" fill="#f4a28c"/>
        <path id="Path_2575" data-name="Path 2575" d="M289.265,107.47l-1.352,1.657a.732.732,0,0,0,.4,1.159l1.7.417Z" transform="translate(4.149 0.734)" fill="#f4a28c"/>
        <path id="Path_2576" data-name="Path 2576" d="M292.42,113.6a5.347,5.347,0,0,0,2.714-1.423,8.407,8.407,0,0,1-3.355,5.185Z" transform="translate(4.216 0.813)" fill="#ce8172" opacity="0.31"/>
        <path id="Path_2577" data-name="Path 2577" d="M317.078,136.088a22.447,22.447,0,0,0-21.939-14.538l-3.609.122s-25.365-.112-27.286,22.986,8.519,41.4,8.519,41.4l34.087,1.24S324.438,156.461,317.078,136.088Z" transform="translate(3.754 0.968)" fill="#2673d1"/>
        <path id="Path_2578" data-name="Path 2578" d="M299.418,133.35s-4.859,17.14-3.05,33.752-2.948,19.529-2.948,19.529l12.972.468s3.853-6.669,4.9-10.166S317.941,134.011,299.418,133.35Z" transform="translate(4.243 1.165)" opacity="0.08"/>
        <path id="Path_2579" data-name="Path 2579" d="M311.035,127.274c7.848,6,17.669,17.75,15.981,38.439l-22.61.234s-6.832-17.283-4.951-33.823a7.238,7.238,0,0,1,11.579-4.849Z" transform="translate(4.338 1.039)" fill="#2673d1"/>
        <path id="Path_2580" data-name="Path 2580" d="M311.035,127.274c7.848,6,17.669,17.75,15.981,38.439l-22.61.234s-6.832-17.283-4.951-33.823a7.238,7.238,0,0,1,11.579-4.849Z" transform="translate(4.338 1.039)" fill="#fff" opacity="0.46"/>
        <path id="Path_2581" data-name="Path 2581" d="M324.739,165.08s.579,30.611-8.245,48.219l-4.819-.722s3.985-29.3-3.985-47.314Z" transform="translate(4.48 1.692)" fill="#f4a28c"/>
        <path id="Path_2582" data-name="Path 2582" d="M316.5,212.522s-2.084,10.065-7.482,6.395,2.664-7.116,2.664-7.116Z" transform="translate(4.471 2.469)" fill="#f4a28c"/>
        <path id="Path_2583" data-name="Path 2583" d="M306.918,187.506S278.453,160.7,252.081,160.84s-6.1,65.42-6.1,65.42l8.712-3.538s1.017-31.861,4.311-39.943S275.433,228.039,306.918,187.506Z" transform="translate(3.331 1.622)" fill="#24285b"/>
        <path id="Path_2584" data-name="Path 2584" d="M266.724,81.64H225.9V89.2H215.272V63.31H150.33v39.181h64.942V91.125H225.9v15.138h31.719l6.1,9.322v-9.322h3.009Z" transform="translate(1.864 0)" fill="#cee0f6"/>
        <circle id="Ellipse_42" data-name="Ellipse 42" cx="2.481" cy="2.481" r="2.481" transform="translate(237.55 91.938)" opacity="0.09"/>
        <circle id="Ellipse_43" data-name="Ellipse 43" cx="2.481" cy="2.481" r="2.481" transform="translate(245.693 91.938)" opacity="0.09"/>
        <circle id="Ellipse_44" data-name="Ellipse 44" cx="2.481" cy="2.481" r="2.481" transform="translate(253.836 91.938)" opacity="0.09"/>
        <circle id="Ellipse_45" data-name="Ellipse 45" cx="3.294" cy="3.294" r="3.294" transform="translate(169.09 77.868)" opacity="0.09"/>
        <circle id="Ellipse_46" data-name="Ellipse 46" cx="3.294" cy="3.294" r="3.294" transform="translate(179.887 77.868)" opacity="0.09"/>
        <circle id="Ellipse_47" data-name="Ellipse 47" cx="3.294" cy="3.294" r="3.294" transform="translate(190.683 77.868)" opacity="0.09"/>
    </g>
</svg>